<svg width="1092" height="793" viewBox="0 0 1092 793" fill="none" xmlns="http://www.w3.org/2000/svg">
<circle cx="94.5" cy="114.5" r="14.5" fill="#202122"/>
<circle cx="152.5" cy="114.5" r="14.5" fill="#202122"/>
<circle cx="210.5" cy="114.5" r="14.5" fill="#202122"/>
<path d="M586.039 335.7C576.566 332.964 566.703 338.493 563.973 347.987L492.645 598.184C489.915 607.678 495.432 617.563 504.905 620.3C514.378 623.036 524.241 617.507 526.972 608.013L598.299 357.816C601.029 348.322 595.513 338.437 586.039 335.7ZM622.037 411.709C615.072 418.69 615.072 430.027 622.037 437.008L662.939 478L622.037 518.992C615.072 525.973 615.072 537.31 622.037 544.291C629.003 551.272 640.315 551.272 647.28 544.291L700.776 490.677C707.741 483.696 707.741 472.359 700.776 465.378L647.28 411.765C640.315 404.784 629.003 404.784 622.037 411.765V411.709ZM468.963 411.709C461.997 404.728 450.685 404.728 443.72 411.709L390.224 465.323C383.259 472.304 383.259 483.641 390.224 490.622L443.72 544.235C450.685 551.216 461.997 551.216 468.963 544.235C475.928 537.254 475.928 525.917 468.963 518.936L428.061 478L468.907 437.008C475.872 430.027 475.872 418.69 468.907 411.709H468.963Z" fill="#202122"/>
<mask id="path-5-inside-1_117_2082" fill="white">
<rect width="1092" height="793" rx="20"/>
</mask>
<rect width="1092" height="793" rx="20" stroke="#202122" stroke-width="80" mask="url(#path-5-inside-1_117_2082)"/>
<path d="M37 199H1055" stroke="#202122" stroke-width="40"/>
</svg>
