<svg width="139" height="38" viewBox="0 0 139 38" fill="none" xmlns="http://www.w3.org/2000/svg">
<path d="M3 0.5C1.61929 0.5 0.5 1.61929 0.5 3C0.5 4.38071 1.61929 5.5 3 5.5V3V0.5ZM137.423 21.243C138.4 20.2666 138.4 18.6837 137.423 17.7074L121.514 1.79752C120.537 0.821209 118.954 0.821209 117.978 1.79752C117.002 2.77383 117.002 4.35674 117.978 5.33305L132.12 19.4752L117.978 33.6173C117.002 34.5936 117.002 36.1765 117.978 37.1529C118.954 38.1292 120.537 38.1292 121.514 37.1529L137.423 21.243ZM57 11.2376H59.5H57ZM57 11.2376H59.5H57ZM3 3V5.5H48.7624V3V0.5H3V3ZM65.2376 19.4752V21.9752H135.656V19.4752V16.9752H65.2376V19.4752ZM57 11.2376H54.5C54.5 17.1678 59.3074 21.9752 65.2376 21.9752V19.4752V16.9752C62.0688 16.9752 59.5 14.4064 59.5 11.2376H57ZM48.7624 3V5.5C51.9312 5.5 54.5 8.06881 54.5 11.2376H57H59.5C59.5 5.30738 54.6926 0.5 48.7624 0.5V3Z" fill="#202122"/>
</svg>
