<svg width="167" height="118" viewBox="0 0 167 118" fill="none" xmlns="http://www.w3.org/2000/svg">
<path d="M49.736 92C42.056 92 35.1867 90.8907 29.128 88.672C23.0693 86.4533 17.9067 83.3387 13.64 79.328C9.37333 75.3173 6.088 70.5813 3.784 65.12C1.56533 59.6587 0.456 53.6853 0.456 47.2C0.456 40.7147 1.56533 34.7413 3.784 29.28C6.088 23.8187 9.37333 19.0827 13.64 15.072C17.9067 11.0613 23.0693 7.94667 29.128 5.728C35.1867 3.50933 42.056 2.39999 49.736 2.39999H63.432V22.24H50.504C46.4933 22.24 42.9093 22.88 39.752 24.16C36.68 25.44 34.0773 27.232 31.944 29.536C29.8107 31.7547 28.1893 34.4 27.08 37.472C25.9707 40.4587 25.416 43.7013 25.416 47.2C25.416 50.6987 25.9707 53.984 27.08 57.056C28.1893 60.128 29.8107 62.7733 31.944 64.992C34.0773 67.2107 36.68 68.96 39.752 70.24C42.9093 71.52 46.4933 72.16 50.504 72.16H63.432V92H49.736Z" fill="white"/>
<path d="M106.296 117.984V89.568H130.744V117.984H106.296ZM118.456 93.664C111.373 93.664 104.888 92.512 99 90.208C93.112 87.8187 88.0347 84.5333 83.768 80.352C79.5867 76.0853 76.3013 71.136 73.912 65.504C71.608 59.872 70.456 53.7707 70.456 47.2C70.456 40.6293 71.608 34.528 73.912 28.896C76.3013 23.1787 79.5867 18.2293 83.768 14.048C88.0347 9.86666 93.112 6.62399 99 4.31999C104.888 1.93066 111.373 0.735992 118.456 0.735992C125.624 0.735992 132.109 1.93066 137.912 4.31999C143.8 6.62399 148.877 9.86666 153.144 14.048C157.411 18.2293 160.696 23.1787 163 28.896C165.304 34.528 166.456 40.6293 166.456 47.2C166.456 53.7707 165.304 59.872 163 65.504C160.696 71.136 157.411 76.0853 153.144 80.352C148.877 84.5333 143.8 87.8187 137.912 90.208C132.109 92.512 125.624 93.664 118.456 93.664ZM118.456 73.44C121.955 73.44 125.112 72.8 127.928 71.52C130.829 70.1547 133.304 68.2773 135.352 65.888C137.485 63.4133 139.064 60.5973 140.088 57.44C141.197 54.2827 141.752 50.8693 141.752 47.2C141.752 43.5307 141.197 40.1173 140.088 36.96C139.064 33.7173 137.485 30.9013 135.352 28.512C133.304 26.1227 130.829 24.288 127.928 23.008C125.112 21.6427 121.955 20.96 118.456 20.96C115.043 20.96 111.885 21.6427 108.984 23.008C106.083 24.288 103.608 26.1227 101.56 28.512C99.512 30.9013 97.9333 33.7173 96.824 36.96C95.7147 40.1173 95.16 43.5307 95.16 47.2C95.16 50.8693 95.7147 54.2827 96.824 57.44C97.9333 60.5973 99.512 63.4133 101.56 65.888C103.608 68.2773 106.083 70.1547 108.984 71.52C111.885 72.8 115.043 73.44 118.456 73.44Z" fill="#737373"/>
</svg>
