<svg width="137" height="25" viewBox="0 0 137 25" fill="none" xmlns="http://www.w3.org/2000/svg">
<path d="M1.5 0C0.947715 0 0.5 0.447715 0.5 1C0.5 1.55228 0.947715 2 1.5 2V1V0ZM136.363 18.1823C136.753 17.7918 136.753 17.1586 136.363 16.7681L129.999 10.4041C129.608 10.0136 128.975 10.0136 128.585 10.4041C128.194 10.7946 128.194 11.4278 128.585 11.8183L134.242 17.4752L128.585 23.132C128.194 23.5226 128.194 24.1557 128.585 24.5463C128.975 24.9368 129.608 24.9368 129.999 24.5463L136.363 18.1823ZM56 9.23759H57H56ZM56 9.23759H57H56ZM1.5 1V2H47.7624V1V0H1.5V1ZM64.2376 17.4752V18.4752H135.656V17.4752V16.4752H64.2376V17.4752ZM56 9.23759H55C55 14.3394 59.1358 18.4752 64.2376 18.4752V17.4752V16.4752C60.2404 16.4752 57 13.2348 57 9.23759H56ZM47.7624 1V2C51.7596 2 55 5.24038 55 9.23759H56H57C57 4.13581 52.8642 0 47.7624 0V1Z" fill="#26CCE2"/>
</svg>
