<svg width="141" height="141" viewBox="0 0 141 141" fill="none" xmlns="http://www.w3.org/2000/svg">
<path d="M90.3548 64.2H89.3871V55.4571C89.3871 50.562 87.4501 45.8674 84.0018 42.406C80.5535 38.9446 75.8766 37 71 37C66.1234 37 61.4466 38.9446 57.9983 42.406C54.5501 45.8674 52.6129 50.562 52.6129 55.4571V64.2H51.6452C48.8219 64.2 46.1142 65.3257 44.1179 67.3299C42.1215 69.3338 41 72.0519 41 74.8857V94.3143C41 97.1481 42.1215 99.8662 44.1179 101.87C46.1142 103.874 48.8219 105 51.6452 105H90.3548C93.1779 105 95.8857 103.874 97.8819 101.87C99.8786 99.8662 101 97.1481 101 94.3143V74.8857C101 72.0519 99.8786 69.3338 97.8819 67.3299C95.8857 65.3257 93.1779 64.2 90.3548 64.2ZM58.4194 55.4571C58.4194 52.1079 59.7448 48.8957 62.1041 46.5274C64.4635 44.1591 67.6632 42.8286 71 42.8286C74.3368 42.8286 77.5365 44.1591 79.8959 46.5274C82.2552 48.8957 83.5806 52.1079 83.5806 55.4571V64.2H58.4194V55.4571ZM95.1935 94.3143C95.1935 95.6024 94.6837 96.8381 93.7764 97.7489C92.869 98.6597 91.6381 99.1714 90.3548 99.1714H51.6452C50.3619 99.1714 49.1311 98.6597 48.2237 97.7489C47.3163 96.8381 46.8065 95.6024 46.8065 94.3143V74.8857C46.8065 73.5976 47.3163 72.3619 48.2237 71.4511C49.1311 70.5403 50.3619 70.0286 51.6452 70.0286H90.3548C91.6381 70.0286 92.869 70.5403 93.7764 71.4511C94.6837 72.3619 95.1935 73.5976 95.1935 74.8857V94.3143Z" fill="#373839"/>
<circle cx="70.5" cy="70.5" r="56.5" stroke="#373839" stroke-width="4"/>
<circle cx="70.5" cy="70.5" r="68.5" stroke="#373839" stroke-width="4"/>
</svg>
