<svg width="1104" height="505" viewBox="0 0 1104 505" fill="none" xmlns="http://www.w3.org/2000/svg">
<g filter="url(#filter0_i_132_2155)">
<rect width="1104" height="505" rx="19" fill="#141516"/>
</g>
<path d="M629.887 198.818V288.911L551.865 333.956L473.844 288.911V198.818L551.865 153.773L629.887 198.818Z" stroke="#464747" stroke-width="10" stroke-linecap="round"/>
<path d="M552.918 329.196V238.706L479.176 200.673" stroke="#464747" stroke-width="10" stroke-linecap="round"/>
<path d="M552.918 240.003L623.851 200.673" stroke="#464747" stroke-width="10" stroke-linecap="round"/>
<path d="M552 138V82" stroke="#373839" stroke-width="2"/>
<circle cx="552" cy="77" r="5" fill="#373839"/>
<path d="M552 348V404" stroke="#373839" stroke-width="2"/>
<circle cx="5" cy="5" r="5" transform="matrix(1 0 0 -1 547 414)" fill="#373839"/>
<circle cx="447" cy="141" r="5" fill="#373839"/>
<circle cx="408" cy="151" r="5" fill="#373839"/>
<path d="M447.5 197H435V186L428 180V154.5L421 151.5H411" stroke="#373839" stroke-width="2"/>
<path d="M461.5 197H447.5V146" stroke="#373839" stroke-width="2"/>
<circle cx="657" cy="141" r="5" fill="#373839"/>
<circle cx="697" cy="151" r="5" fill="#373839"/>
<path d="M657 197H669.5V186L676.5 180V154.5L683.5 151.5H693.5" stroke="#373839" stroke-width="2"/>
<path d="M643 197H657V146" stroke="#373839" stroke-width="2"/>
<circle cx="5" cy="5" r="5" transform="matrix(1 0 0 -1 652 348)" fill="#373839"/>
<circle cx="5" cy="5" r="5" transform="matrix(1 0 0 -1 692 338)" fill="#373839"/>
<path d="M657 287H669.5V298L676.5 304V329.5L683.5 332.5H693.5" stroke="#373839" stroke-width="2"/>
<path d="M643 287H657V338" stroke="#373839" stroke-width="2"/>
<circle cx="448" cy="343" r="5" transform="rotate(180 448 343)" fill="#373839"/>
<circle cx="408" cy="333" r="5" transform="rotate(180 408 333)" fill="#373839"/>
<path d="M448 287H435.5V298L428.5 304V329.5L421.5 332.5H411.5" stroke="#373839" stroke-width="2"/>
<path d="M462 287H448V338" stroke="#373839" stroke-width="2"/>
<path d="M174.355 249.2H173.387V240.457C173.387 235.562 171.45 230.867 168.002 227.406C164.554 223.945 159.877 222 155 222C150.123 222 145.447 223.945 141.998 227.406C138.55 230.867 136.613 235.562 136.613 240.457V249.2H135.645C132.822 249.2 130.114 250.326 128.118 252.33C126.122 254.334 125 257.052 125 259.886V279.314C125 282.148 126.122 284.866 128.118 286.87C130.114 288.874 132.822 290 135.645 290H174.355C177.178 290 179.886 288.874 181.882 286.87C183.879 284.866 185 282.148 185 279.314V259.886C185 257.052 183.879 254.334 181.882 252.33C179.886 250.326 177.178 249.2 174.355 249.2ZM142.419 240.457C142.419 237.108 143.745 233.896 146.104 231.527C148.463 229.159 151.663 227.829 155 227.829C158.337 227.829 161.537 229.159 163.896 231.527C166.255 233.896 167.581 237.108 167.581 240.457V249.2H142.419V240.457ZM179.194 279.314C179.194 280.602 178.684 281.838 177.776 282.749C176.869 283.66 175.638 284.171 174.355 284.171H135.645C134.362 284.171 133.131 283.66 132.224 282.749C131.316 281.838 130.806 280.602 130.806 279.314V259.886C130.806 258.598 131.316 257.362 132.224 256.451C133.131 255.54 134.362 255.029 135.645 255.029H174.355C175.638 255.029 176.869 255.54 177.776 256.451C178.684 257.362 179.194 258.598 179.194 259.886V279.314Z" fill="#373839"/>
<circle cx="154.5" cy="255.5" r="56.5" stroke="#373839" stroke-width="4"/>
<circle cx="154.5" cy="255.5" r="68.5" stroke="#373839" stroke-width="4"/>
<path d="M975.355 249.2H974.387V240.457C974.387 235.562 972.45 230.867 969.002 227.406C965.554 223.945 960.877 222 956 222C951.123 222 946.447 223.945 942.998 227.406C939.55 230.867 937.613 235.562 937.613 240.457V249.2H936.645C933.822 249.2 931.114 250.326 929.118 252.33C927.122 254.334 926 257.052 926 259.886V279.314C926 282.148 927.122 284.866 929.118 286.87C931.114 288.874 933.822 290 936.645 290H975.355C978.178 290 980.886 288.874 982.882 286.87C984.879 284.866 986 282.148 986 279.314V259.886C986 257.052 984.879 254.334 982.882 252.33C980.886 250.326 978.178 249.2 975.355 249.2ZM943.419 240.457C943.419 237.108 944.745 233.896 947.104 231.527C949.463 229.159 952.663 227.829 956 227.829C959.337 227.829 962.537 229.159 964.896 231.527C967.255 233.896 968.581 237.108 968.581 240.457V249.2H943.419V240.457ZM980.194 279.314C980.194 280.602 979.684 281.838 978.776 282.749C977.869 283.66 976.638 284.171 975.355 284.171H936.645C935.362 284.171 934.131 283.66 933.224 282.749C932.316 281.838 931.806 280.602 931.806 279.314V259.886C931.806 258.598 932.316 257.362 933.224 256.451C934.131 255.54 935.362 255.029 936.645 255.029H975.355C976.638 255.029 977.869 255.54 978.776 256.451C979.684 257.362 980.194 258.598 980.194 259.886V279.314Z" fill="#373839"/>
<circle cx="955.5" cy="255.5" r="56.5" stroke="#373839" stroke-width="4"/>
<circle cx="955.5" cy="255.5" r="68.5" stroke="#373839" stroke-width="4"/>
<path d="M230 248.5H458" stroke="#373839" stroke-width="2"/>
<path d="M652 249H880" stroke="#373839" stroke-width="2"/>
<defs>
<filter id="filter0_i_132_2155" x="0" y="0" width="1104" height="509" filterUnits="userSpaceOnUse" color-interpolation-filters="sRGB">
<feFlood flood-opacity="0" result="BackgroundImageFix"/>
<feBlend mode="normal" in="SourceGraphic" in2="BackgroundImageFix" result="shape"/>
<feColorMatrix in="SourceAlpha" type="matrix" values="0 0 0 0 0 0 0 0 0 0 0 0 0 0 0 0 0 0 127 0" result="hardAlpha"/>
<feOffset dy="4"/>
<feGaussianBlur stdDeviation="2"/>
<feComposite in2="hardAlpha" operator="arithmetic" k2="-1" k3="1"/>
<feColorMatrix type="matrix" values="0 0 0 0 0 0 0 0 0 0 0 0 0 0 0 0 0 0 0.25 0"/>
<feBlend mode="normal" in2="shape" result="effect1_innerShadow_132_2155"/>
</filter>
</defs>
</svg>
